# xmcd
#
# Track frame offsets:
# 150
# 11500
# 23335
# 34355
# 45680
# 57170
# 67708
# 79235
# 90040
# 101275
# 114198
# 125778
# 136685
#
# Disc length: 1981 seconds
#
#
# Revision: 1
# Processed by: cddbd v1.5.1PL2 Copyright (c) Steve Scherf et al.
# Submitted via: FreeRIP 2.945 
#
DISCID=8e07bb0d
DTITLE=Lester Flatt and Earl Scruggs - You Can Feel It In Your Soul
DYEAR=1994
DGENRE=Gospel
TTITLE0=Cabin On The Hill
TTITLE1=Heaven
TTITLE2=Joy Bells
TTITLE3=You Can Feel It In Your Soul
TTITLE4=Who Will Sing For Me
TTITLE5=Is There Room For Me
TTITLE6=It Won't Be Long
TTITLE7=Bubblin' In My Soul
TTITLE8=Gone Home
TTITLE9=Give Mother My Crown
TTITLE10=A Million Years In Glory
TTITLE11=Give Me Flowers While I'm Living
TTITLE12=Be Ready For Tomrrow May Never Come
EXTD=Country Records
EXTT0=
EXTT1=
EXTT2=
EXTT3=
EXTT4=
EXTT5=
EXTT6=
EXTT7=
EXTT8=
EXTT9=
EXTT10=
EXTT11=
EXTT12=
PLAYORDER=
